H0918M_states
version=1
nRows=10
nColumns=55
inDegrees=yes

# SIMM Motion File Header:
name H0918M_states
datacolumns 55
datarows 10
otherdata 1
range 1.81729953 1.82936302
endheader
time	/jointset/ground_pelvis/pelvis_tilt/value	/jointset/ground_pelvis/pelvis_tilt/speed	/jointset/ground_pelvis/pelvis_tx/value	/jointset/ground_pelvis/pelvis_tx/speed	/jointset/ground_pelvis/pelvis_ty/value	/jointset/ground_pelvis/pelvis_ty/speed	/jointset/hip_r/hip_flexion_r/value	/jointset/hip_r/hip_flexion_r/speed	/jointset/knee_r/knee_angle_r/value	/jointset/knee_r/knee_angle_r/speed	/jointset/ankle_r/ankle_angle_r/value	/jointset/ankle_r/ankle_angle_r/speed	/jointset/hip_l/hip_flexion_l/value	/jointset/hip_l/hip_flexion_l/speed	/jointset/knee_l/knee_angle_l/value	/jointset/knee_l/knee_angle_l/speed	/jointset/ankle_l/ankle_angle_l/value	/jointset/ankle_l/ankle_angle_l/speed	/forceset/hamstrings_r/activation	/forceset/hamstrings_r/fiber_length	/forceset/bifemsh_r/activation	/forceset/bifemsh_r/fiber_length	/forceset/glut_max_r/activation	/forceset/glut_max_r/fiber_length	/forceset/iliopsoas_r/activation	/forceset/iliopsoas_r/fiber_length	/forceset/rect_fem_r/activation	/forceset/rect_fem_r/fiber_length	/forceset/vasti_r/activation	/forceset/vasti_r/fiber_length	/forceset/gastroc_r/activation	/forceset/gastroc_r/fiber_length	/forceset/soleus_r/activation	/forceset/soleus_r/fiber_length	/forceset/tib_ant_r/activation	/forceset/tib_ant_r/fiber_length	/forceset/hamstrings_l/activation	/forceset/hamstrings_l/fiber_length	/forceset/bifemsh_l/activation	/forceset/bifemsh_l/fiber_length	/forceset/glut_max_l/activation	/forceset/glut_max_l/fiber_length	/forceset/iliopsoas_l/activation	/forceset/iliopsoas_l/fiber_length	/forceset/rect_fem_l/activation	/forceset/rect_fem_l/fiber_length	/forceset/vasti_l/activation	/forceset/vasti_l/fiber_length	/forceset/gastroc_l/activation	/forceset/gastroc_l/fiber_length	/forceset/soleus_l/activation	/forceset/soleus_l/fiber_length	/forceset/tib_ant_l/activation	/forceset/tib_ant_l/fiber_length
      1.81729953	   -190.75400507	     19.14640949	     -0.70220508	     -1.10592543	     -0.32971110	      0.18353960	    -53.77040454	    -61.75678148	     -4.61921056	     16.55120611	      1.87619745	    312.94683608	    304.54484189	    -38.07768061	     -2.27513019	     12.64150292	      8.89046055	      9.37259137	     -0.22397731	      0.09316099	     -0.22397731	      0.17016998	     -0.22397731	      0.09324333	     -0.22397731	      0.12403348	     -0.20566760	      0.12503414	     -0.19742106	      0.05524790	     -0.20427881	      0.06276033	     -0.20796285	      0.04756337	     -0.19849651	      0.08096267	     -0.22169150	      0.09379624	     -0.21585911	      0.17113634	     -0.22294217	      0.09522458	     -0.19407995	      0.12436582	     -0.22397731	      0.12339378	     -0.22397731	      0.05508405	     -0.22397731	      0.06917353	     -0.22397731	      0.05206452	     -0.19550166	      0.07710404
      1.81809090	   -190.73904487	     18.66551517	     -0.70307872	     -1.10205110	     -0.32956880	      0.17607576	    -53.81889571	    -60.80432346	     -4.60565030	     17.76129703	      2.12389787	    311.91923392	    304.51531547	    -36.55010774	     -2.26535974	     12.05425730	      8.89687548	      6.84243100	     -0.22407920	      0.09310422	     -0.22407920	      0.17017537	     -0.22407920	      0.09319079	     -0.22407920	      0.12404346	     -0.20576949	      0.12502904	     -0.19752295	      0.05521669	     -0.20438070	      0.06290721	     -0.20806474	      0.04755045	     -0.19859840	      0.08091269	     -0.22179339	      0.09373923	     -0.21596100	      0.17114044	     -0.22304406	      0.09516858	     -0.19418183	      0.12437178	     -0.22407920	      0.12338552	     -0.22407920	      0.05505314	     -0.22407920	      0.06919103	     -0.22407920	      0.05207646	     -0.19560354	      0.07705556
      1.81888226	   -190.72445712	     18.20525295	     -0.70394937	     -1.09835565	     -0.32943243	      0.16854919	    -53.86665963	    -59.91984987	     -4.59102457	     19.24839577	      2.36789240	    303.45993072	    304.48698277	    -35.06091387	     -2.25604661	     11.48556425	      8.90129509	      4.33215808	     -0.22418109	      0.09304747	     -0.22418109	      0.17018116	     -0.22418109	      0.09313834	     -0.22418109	      0.12405328	     -0.20587138	      0.12502321	     -0.19762483	      0.05518554	     -0.20448259	      0.06305944	     -0.20816662	      0.04755661	     -0.19870029	      0.08086273	     -0.22189528	      0.09368224	     -0.21606289	      0.17114436	     -0.22314595	      0.09511267	     -0.19428372	      0.12437750	     -0.22418109	      0.12337758	     -0.22418109	      0.05502227	     -0.22418109	      0.06920707	     -0.22418109	      0.05208717	     -0.19570543	      0.07700709
      1.81967362	   -190.71022602	     17.76340670	     -0.70481716	     -1.09482004	     -0.32930205	      0.16096310	    -53.91374775	    -59.09248452	     -4.57511988	     20.98119380	      2.60230031	    287.87791022	    304.45981457	    -33.60572901	     -2.24717727	     10.93174820	      8.90374461	      1.86982959	     -0.22428298	      0.09299074	     -0.22428298	      0.17018743	     -0.22428298	      0.09308598	     -0.22428298	      0.12406293	     -0.20597327	      0.12501660	     -0.19772672	      0.05515444	     -0.20458447	      0.06321551	     -0.20826851	      0.04758600	     -0.19880218	      0.08081279	     -0.22199717	      0.09362527	     -0.21616477	      0.17114809	     -0.22324784	      0.09505686	     -0.19438561	      0.12438299	     -0.22428298	      0.12336995	     -0.22428298	      0.05499147	     -0.22428298	      0.06922167	     -0.22428298	      0.05209668	     -0.19580732	      0.07695864
      1.82073950	   -190.69160078	     17.18737665	     -0.70598164	     -1.09022433	     -0.32913596	      0.15067256	    -53.97615889	    -58.01733048	     -4.55140739	     23.53802404	      2.89413361	    258.40941116	    304.42502283	    -31.68234491	     -2.23591699	     10.19821337	      8.90403076	     -1.29736213	     -0.22442021	      0.09291436	     -0.22442021	      0.17019674	     -0.22442021	      0.09301561	     -0.22442021	      0.12407568	     -0.20611050	      0.12500638	     -0.19786395	      0.05511264	     -0.20472171	      0.06342840	     -0.20840574	      0.04766044	     -0.19893941	      0.08074555	     -0.22213440	      0.09354857	     -0.21630201	      0.17115283	     -0.22338507	      0.09498184	     -0.19452284	      0.12439002	     -0.22442021	      0.12336017	     -0.22442021	      0.05495006	     -0.22442021	      0.06923913	     -0.22442021	      0.05210763	     -0.19594455	      0.07689342
      1.82220944	   -190.66691234	     16.40338883	     -0.70757962	     -1.08397949	     -0.32892496	      0.13640483	    -54.06033093	    -56.48766355	     -4.51417775	     27.08517311	      3.23868165	    209.56651962	    304.38038219	    -29.05742507	     -2.22166838	      9.18661086	      8.89916251	     -5.22979121	     -0.22460946	      0.09280910	     -0.22460946	      0.17021143	     -0.22460946	      0.09291884	     -0.22460946	      0.12409283	     -0.20629975	      0.12498957	     -0.19805321	      0.05505516	     -0.20491096	      0.06371830	     -0.20859500	      0.04780739	     -0.19912866	      0.08065288	     -0.22232365	      0.09344286	     -0.21649126	      0.17115886	     -0.22357432	      0.09487867	     -0.19471210	      0.12439907	     -0.22460946	      0.12334760	     -0.22460946	      0.05489312	     -0.22460946	      0.06925915	     -0.22460946	      0.05211934	     -0.19613381	      0.07680352
      1.82447598	   -190.63113384	     15.15470146	     -0.71002534	     -1.07401298	     -0.32864074	      0.11440792	    -54.18537565	    -53.76007965	     -4.44728185	     31.71287198	      3.62850346	    136.62242453	    304.31913060	    -24.97798375	     -2.20264950	      7.58564569	      8.88155889	    -10.04487826	     -0.22490128	      0.09264693	     -0.22490128	      0.17023816	     -0.22490128	      0.09277025	     -0.22490128	      0.12411825	     -0.20659157	      0.12495701	     -0.19834503	      0.05496690	     -0.20520278	      0.06413166	     -0.20888682	      0.04806900	     -0.19942048	      0.08051013	     -0.22261547	      0.09328000	     -0.21678308	      0.17116695	     -0.22386614	      0.09472023	     -0.19500391	      0.12441157	     -0.22490128	      0.12333026	     -0.22490128	      0.05480569	     -0.22490128	      0.06928138	     -0.22490128	      0.05213013	     -0.19642562	      0.07666504
      1.82618821	   -190.60603787	     14.14936848	     -0.71185746	     -1.06595210	     -0.32845900	      0.09789737	    -54.27537419	    -51.30742554	     -4.39074378	     34.17096608	      3.82480319	     95.13065491	    304.27904685	    -21.83310287	     -2.19072420	      6.34011343	      8.86196940	    -12.71552149	     -0.22512173	      0.09252454	     -0.22512173	      0.17026107	     -0.22512173	      0.09265851	     -0.22512173	      0.12413658	     -0.20681202	      0.12492715	     -0.19856547	      0.05490053	     -0.20542323	      0.06440194	     -0.20910727	      0.04825526	     -0.19964093	      0.08040239	     -0.22283592	      0.09315709	     -0.21700353	      0.17117208	     -0.22408659	      0.09460106	     -0.19522436	      0.12441986	     -0.22512173	      0.12331881	     -0.22512173	      0.05473995	     -0.22512173	      0.06929180	     -0.22512173	      0.05213295	     -0.19664607	      0.07656053
      1.82790044	   -190.58271231	     13.08789655	     -0.71367536	     -1.05740822	     -0.32830542	      0.08151212	    -54.36089143	    -48.53374159	     -4.33078248	     35.72760820	      3.96312156	     68.96852065	    304.24439260	    -18.63906215	     -2.18094460	      5.08339186	      8.83835711	    -14.78984853	     -0.22534218	      0.09240225	     -0.22534218	      0.17028563	     -0.22534218	      0.09254721	     -0.22534218	      0.12415407	     -0.20703247	      0.12489328	     -0.19878592	      0.05483441	     -0.20564368	      0.06463185	     -0.20932771	      0.04841581	     -0.19986138	      0.08029473	     -0.22305637	      0.09303429	     -0.21722398	      0.17117635	     -0.22430704	      0.09448233	     -0.19544481	      0.12442714	     -0.22534218	      0.12330882	     -0.22534218	      0.05467446	     -0.22534218	      0.06929729	     -0.22534218	      0.05213168	     -0.19686652	      0.07645611
      1.82936302	   -190.56425584	     12.14581932	     -0.71521638	     -1.04980518	     -0.32819638	      0.06760569	    -54.43001272	    -45.95845446	     -4.27793799	     36.45199936	      4.05473361	     57.86134144	    304.21914015	    -15.89101524	     -2.17428911	      4.02083302	      8.81559716	    -16.31197118	     -0.22553049	      0.09229787	     -0.22553049	      0.17030742	     -0.22553049	      0.09245247	     -0.22553049	      0.12416826	     -0.20722078	      0.12486173	     -0.19897423	      0.05477814	     -0.20583199	      0.06479861	     -0.20951602	      0.04853129	     -0.20004969	      0.08020285	     -0.22324468	      0.09292946	     -0.21741229	      0.17117931	     -0.22449535	      0.09438127	     -0.19563312	      0.12443256	     -0.22553049	      0.12330144	     -0.22553049	      0.05461872	     -0.22553049	      0.06929845	     -0.22553049	      0.05212773	     -0.19705483	      0.07636699
